<svg xmlns="http://www.w3.org/2000/svg" viewBox="0 0 1254.85 57.85"><defs><style>.cls-1{opacity:0.8;}.cls-2,.cls-3{fill:none;stroke:#231f20;stroke-miterlimit:10;stroke-width:0.92px;}.cls-3{opacity:0;}.cls-4{opacity:0.5;}.cls-5{font-size:20px;fill:#231f20;font-family:ArialMT, Arial;}.cls-6{letter-spacing:5.57em;}.cls-7{letter-spacing:5.57em;}</style></defs><title>scale</title><g id="txt"><g class="cls-1"><line class="cls-2" x1="139.79" y1="22.42" x2="139.79"/><line class="cls-3" x1="0.46" y1="22.42" x2="0.46"/><line class="cls-2" x1="279.11" y1="22.42" x2="279.11"/><line class="cls-2" x1="418.44" y1="22.42" x2="418.44"/><line class="cls-2" x1="697.09" y1="22.42" x2="697.09"/><line class="cls-2" x1="557.76" y1="22.42" x2="557.76"/><line class="cls-2" x1="836.41" y1="22.42" x2="836.41"/><line class="cls-2" x1="975.73" y1="22.42" x2="975.73"/><line class="cls-2" x1="1115.06" y1="22.42" x2="1115.06"/><line class="cls-3" x1="1254.38" y1="28.02" x2="1254.38"/></g><g class="cls-4"><line class="cls-2" x1="70.05" y1="20.48" x2="70.05"/><line class="cls-2" x1="209.37" y1="20.48" x2="209.37"/><line class="cls-2" x1="348.7" y1="20.48" x2="348.7"/><line class="cls-2" x1="627.35" y1="20.48" x2="627.35"/><line class="cls-2" x1="488.02" y1="20.48" x2="488.02"/><line class="cls-2" x1="766.67" y1="20.48" x2="766.67"/><line class="cls-2" x1="906" y1="20.48" x2="906"/><line class="cls-2" x1="1045.32" y1="20.48" x2="1045.32"/><line class="cls-2" x1="1184.65" y1="20.48" x2="1184.65"/><line class="cls-3" x1="1184.65" y1="20.48" x2="1184.65"/></g><text class="cls-5" transform="translate(129.49 51.35)">20<tspan class="cls-6" x="22.25" y="0"> </tspan><tspan x="139.17" y="0">30</tspan><tspan class="cls-7" x="161.41" y="0"> </tspan><tspan x="278.34" y="0">40</tspan><tspan class="cls-6" x="300.58" y="0"> </tspan><tspan x="417.51" y="0">50</tspan><tspan class="cls-7" x="439.75" y="0"> </tspan><tspan x="556.67" y="0">60</tspan><tspan class="cls-6" x="578.92" y="0"> </tspan><tspan x="695.84" y="0">70</tspan><tspan class="cls-6" x="718.09" y="0"> </tspan><tspan x="835.01" y="0">80</tspan><tspan class="cls-6" x="857.26" y="0"> </tspan><tspan x="974.18" y="0">90</tspan></text></g></svg>