<svg xmlns="http://www.w3.org/2000/svg" viewBox="0 0 1254.67 38.46"><defs><style>.cls-1{opacity:0.8;}.cls-2,.cls-3{fill:none;stroke:#231f20;stroke-miterlimit:10;stroke-width:0.74px;}.cls-3{opacity:0;}.cls-4{opacity:0.5;}.cls-5{font-size:10px;fill:#231f20;font-family:ArialMT, Arial;}.cls-6{letter-spacing:12.56em;}.cls-7{letter-spacing:12.56em;}.cls-8{letter-spacing:12.56em;}</style></defs><title>scale-uhd</title><g id="txt"><g class="cls-1"><line class="cls-2" x1="139.7" y1="14.55" x2="139.7"/><line class="cls-3" x1="0.37" y1="14.55" x2="0.37"/><line class="cls-2" x1="279.02" y1="14.55" x2="279.02"/><line class="cls-2" x1="418.35" y1="14.55" x2="418.35"/><line class="cls-2" x1="697" y1="14.55" x2="697"/><line class="cls-2" x1="557.67" y1="14.55" x2="557.67"/><line class="cls-2" x1="836.32" y1="14.55" x2="836.32"/><line class="cls-2" x1="975.65" y1="14.55" x2="975.65"/><line class="cls-2" x1="1114.97" y1="14.55" x2="1114.97"/><line class="cls-3" x1="1254.29" y1="18.18" x2="1254.29"/></g><g class="cls-4"><line class="cls-2" x1="69.96" y1="13.29" x2="69.96"/><line class="cls-2" x1="209.28" y1="13.29" x2="209.28"/><line class="cls-2" x1="348.61" y1="13.29" x2="348.61"/><line class="cls-2" x1="627.26" y1="13.29" x2="627.26"/><line class="cls-2" x1="487.93" y1="13.29" x2="487.93"/><line class="cls-2" x1="766.58" y1="13.29" x2="766.58"/><line class="cls-2" x1="905.91" y1="13.29" x2="905.91"/><line class="cls-2" x1="1045.23" y1="13.29" x2="1045.23"/><line class="cls-2" x1="1184.56" y1="13.29" x2="1184.56"/><line class="cls-3" x1="1184.56" y1="13.29" x2="1184.56"/></g><text class="cls-5" transform="translate(133.73 27.32)">20<tspan class="cls-6" x="11.12" y="0"> </tspan><tspan x="139.48" y="0">30</tspan><tspan class="cls-7" x="150.6" y="0"> </tspan><tspan x="278.95" y="0">40</tspan><tspan class="cls-6" x="290.08" y="0"> </tspan><tspan x="418.43" y="0">50</tspan><tspan class="cls-7" x="429.55" y="0"> </tspan><tspan x="557.91" y="0">60</tspan><tspan class="cls-7" x="569.03" y="0"> </tspan><tspan x="697.38" y="0">70</tspan><tspan class="cls-8" x="708.51" y="0"> </tspan><tspan x="836.86" y="0">80</tspan><tspan class="cls-7" x="847.98" y="0"> </tspan><tspan x="976.34" y="0">90</tspan></text></g></svg>