<svg xmlns="http://www.w3.org/2000/svg" viewBox="0 0 1254.74 48.19"><defs><style>.cls-1{opacity:0.8;}.cls-2,.cls-3{fill:none;stroke:#231f20;stroke-miterlimit:10;stroke-width:0.82px;}.cls-3{opacity:0;}.cls-4{opacity:0.5;}.cls-5{font-size:15px;fill:#231f20;font-family:ArialMT, Arial;}.cls-6{letter-spacing:7.9em;}.cls-7{letter-spacing:7.9em;}.cls-8{letter-spacing:0em;}.cls-9{letter-spacing:7.9em;}.cls-10{letter-spacing:0em;}</style></defs><title>scale-hd</title><g id="txt"><g class="cls-1"><line class="cls-2" x1="139.73" y1="17.53" x2="139.73"/><line class="cls-3" x1="0.41" y1="17.53" x2="0.41"/><line class="cls-2" x1="279.06" y1="17.53" x2="279.06"/><line class="cls-2" x1="418.38" y1="17.53" x2="418.38"/><line class="cls-2" x1="697.03" y1="17.53" x2="697.03"/><line class="cls-2" x1="557.71" y1="17.53" x2="557.71"/><line class="cls-2" x1="836.36" y1="17.53" x2="836.36"/><line class="cls-2" x1="975.68" y1="17.53" x2="975.68"/><line class="cls-2" x1="1115.01" y1="17.53" x2="1115.01"/><line class="cls-3" x1="1254.33" y1="21.91" x2="1254.33"/></g><g class="cls-4"><line class="cls-2" x1="69.99" y1="16.01" x2="69.99"/><line class="cls-2" x1="209.32" y1="16.01" x2="209.32"/><line class="cls-2" x1="348.64" y1="16.01" x2="348.64"/><line class="cls-2" x1="627.29" y1="16.01" x2="627.29"/><line class="cls-2" x1="487.97" y1="16.01" x2="487.97"/><line class="cls-2" x1="766.62" y1="16.01" x2="766.62"/><line class="cls-2" x1="905.94" y1="16.01" x2="905.94"/><line class="cls-2" x1="1045.27" y1="16.01" x2="1045.27"/><line class="cls-2" x1="1184.59" y1="16.01" x2="1184.59"/><line class="cls-3" x1="1184.59" y1="16.01" x2="1184.59"/></g><text class="cls-5" transform="translate(130.72 40.65)">20<tspan class="cls-6" x="16.68" y="0"> </tspan><tspan x="139.42" y="0">30</tspan><tspan class="cls-6" x="156.11" y="0"> </tspan><tspan x="278.85" y="0">40</tspan><tspan class="cls-7" x="295.53" y="0"> </tspan><tspan x="418.27" y="0">50</tspan><tspan class="cls-6" x="434.95" y="0"> </tspan><tspan class="cls-8" x="557.69" y="0">60</tspan><tspan class="cls-7" x="574.38" y="0"> </tspan><tspan class="cls-8" x="697.11" y="0">70</tspan><tspan class="cls-9" x="713.8" y="0"> </tspan><tspan class="cls-10" x="836.54" y="0">80</tspan><tspan class="cls-7" x="853.22" y="0"> </tspan><tspan class="cls-8" x="975.96" y="0">90</tspan></text></g></svg>