<svg xmlns="http://www.w3.org/2000/svg" viewBox="0 0 1255.09 90"><defs><style>.cls-1{opacity:0.8;}.cls-2,.cls-3{fill:none;stroke:#231f20;stroke-miterlimit:10;stroke-width:1.17px;}.cls-3{opacity:0;}.cls-4{opacity:0.5;}.cls-5{font-size:28px;fill:#231f20;font-family:ArialMT, Arial;}.cls-6{letter-spacing:11.04em;}</style></defs><title>scale-mobile</title><g id="txt"><g class="cls-1"><line class="cls-2" x1="139.91" y1="36.02" x2="139.91"/><line class="cls-3" x1="0.58" y1="36.02" x2="0.58"/><line class="cls-2" x1="279.23" y1="36.02" x2="279.23"/><line class="cls-2" x1="418.56" y1="36.02" x2="418.56"/><line class="cls-2" x1="697.21" y1="36.02" x2="697.21"/><line class="cls-2" x1="557.88" y1="36.02" x2="557.88"/><line class="cls-2" x1="836.53" y1="36.02" x2="836.53"/><line class="cls-2" x1="975.86" y1="36.02" x2="975.86"/><line class="cls-2" x1="1115.18" y1="36.02" x2="1115.18"/><line class="cls-3" x1="1254.51" y1="45.02" x2="1254.51"/></g><g class="cls-4"><line class="cls-2" x1="70.17" y1="32.9" x2="70.17"/><line class="cls-2" x1="209.5" y1="32.9" x2="209.5"/><line class="cls-2" x1="348.82" y1="32.9" x2="348.82"/><line class="cls-2" x1="627.47" y1="32.9" x2="627.47"/><line class="cls-2" x1="488.14" y1="32.9" x2="488.14"/><line class="cls-2" x1="766.79" y1="32.9" x2="766.79"/><line class="cls-2" x1="906.12" y1="32.9" x2="906.12"/><line class="cls-2" x1="1045.44" y1="32.9" x2="1045.44"/><line class="cls-2" x1="1184.77" y1="32.9" x2="1184.77"/><line class="cls-3" x1="1184.77" y1="32.9" x2="1184.77"/></g><text class="cls-5" transform="translate(193.65 72.08)">25<tspan class="cls-6" x="31.14" y="0"> </tspan><tspan x="348.04" y="0">50</tspan><tspan class="cls-6" x="379.19" y="0"> </tspan><tspan x="696.09" y="0">75 </tspan></text></g></svg>